<svg width="1107" height="214" viewBox="0 0 1107 214" fill="none" xmlns="http://www.w3.org/2000/svg">
<path d="M426.65 27.9998H323.38V189H358.57V125.29H422.97V94.0098H358.57V60.4298H426.65V27.9998Z" fill="#12192E"/>
<path d="M568.587 189L529.257 27.9998H473.597L434.267 189H471.757L481.877 140.93H520.747L531.097 189H568.587ZM498.207 63.8798L499.127 44.5598H503.727L504.417 63.8798L514.537 110.8H488.317L498.207 63.8798Z" fill="#12192E"/>
<path d="M623.814 27.9998H588.854V189H693.274V156.57H623.814V27.9998Z" fill="#12192E"/>
<path d="M765.521 192.91C800.941 192.91 823.251 168.76 823.251 130.58H786.681C786.681 149.44 778.861 160.48 765.521 160.48C748.041 160.48 740.911 145.07 740.911 108.5C740.911 71.6998 748.501 56.5198 767.131 56.5198C781.161 56.5198 789.211 67.0998 789.211 86.4198H825.551C825.781 48.6998 802.551 24.0898 767.131 24.0898C725.041 24.0898 704.111 51.9198 704.111 108.5C704.111 164.85 724.581 192.91 765.521 192.91Z" fill="#12192E"/>
<path d="M906.308 192.91C947.478 192.91 968.408 164.39 968.408 108.5C968.408 52.6098 947.478 24.0898 906.308 24.0898C865.138 24.0898 844.208 52.6098 844.208 108.5C844.208 164.39 865.138 192.91 906.308 192.91ZM906.308 160.48C888.598 160.48 880.778 144.61 880.778 108.5C880.778 72.3898 888.598 56.5198 906.308 56.5198C924.018 56.5198 931.838 72.3898 931.838 108.5C931.838 144.61 924.018 160.48 906.308 160.48Z" fill="#12192E"/>
<path d="M1073.31 157.95H1068.94L1067.33 128.51L1042.03 27.9998H992.355V189H1024.55V60.1998H1028.92L1030.53 89.4098L1055.83 189H1105.51V27.9998H1073.31V157.95Z" fill="#12192E"/>
<path fill-rule="evenodd" clip-rule="evenodd" d="M231.581 28.026C236.784 25.6513 242.7 29.4543 242.7 35.1739V93.3154C242.7 103.111 237.011 112.014 228.123 116.131L170.206 142.951L146.368 178.071C134.345 195.784 108.262 195.836 96.168 178.171L71.8513 142.653L14.5774 116.131C5.68885 112.014 0 103.111 0 93.3154V35.1739C0 29.4543 5.91599 25.6513 11.1193 28.026L101.449 69.25C110.965 73.5933 117.072 83.0919 117.072 93.5531V162.744H125.629V93.5531C125.629 83.0919 131.735 73.5933 141.252 69.25L231.581 28.026Z" fill="#2D4FBA"/>
</svg>
